<svg xmlns="http://www.w3.org/2000/svg" viewBox="0 0 32 32"><g id="a4f06f7d-48c6-49d6-a9ce-55f5bb4f87d5" data-name="Capa 2"><g id="aad9ba59-156f-424c-9935-92a3264b7440" data-name="iconos"><circle cx="16" cy="16" r="16" style="fill:#a6d1a0"/><path d="M4.56,11.81A3.92,3.92,0,0,1,5.24,9.3a4.5,4.5,0,0,1,.86-.83A10.59,10.59,0,0,1,7.86,7.33a2.38,2.38,0,0,1,.78-.25.86.86,0,0,1,1,.51l.81,1.61.9,1.76a1.11,1.11,0,0,1-.4,1.5,7,7,0,0,1-.95.48,6.89,6.89,0,0,0-.66.34.83.83,0,0,0-.41.84,2.81,2.81,0,0,0,.41,1.2c.44.75.93,1.47,1.41,2.19.61.89,1.16,1.81,1.74,2.72a3.1,3.1,0,0,0,.92,1.05.82.82,0,0,0,1.06,0c.39-.29.78-.58,1.15-.9a1.1,1.1,0,0,1,1.56.16l2.16,2.57.27.32a.88.88,0,0,1,.06,1.24,2.9,2.9,0,0,1-.52.53,9.67,9.67,0,0,1-1.46,1,3.5,3.5,0,0,1-3.09.19A9.07,9.07,0,0,1,12,24.81a22.63,22.63,0,0,1-3.37-3.68,24.44,24.44,0,0,1-3.5-6.42A9.85,9.85,0,0,1,4.56,11.81Z" style="fill:#7abc5f"/><path d="M20.9,18.16A6.38,6.38,0,0,1,19.8,5.49a6.14,6.14,0,0,1,6.48,2.67,6.09,6.09,0,0,1,.25,6.78,5.48,5.48,0,0,1-.9,1.19.91.91,0,0,0-.29.64c0,.51-.06,1-.09,1.52a.5.5,0,0,1-.77.44L23.07,18a.78.78,0,0,0-.6-.06A5.91,5.91,0,0,1,20.9,18.16ZM21,8.53H17.22a.56.56,0,0,0-.63.63v5.13a.55.55,0,0,0,.61.6h7.57a.55.55,0,0,0,.61-.61V9.16a.56.56,0,0,0-.64-.63Z" style="fill:#7abc5f"/><path d="M17.66,10l1.07.74L20.64,12a.66.66,0,0,0,.75,0l2.76-1.93a.15.15,0,0,1,.11-.06s0,.06,0,.09c0,1.18,0,2.35,0,3.52,0,.12,0,.14-.14.14H17.82c-.13,0-.16,0-.16-.15,0-1.15,0-2.29,0-3.44Z" style="fill:#7abc5f"/><path d="M19.08,9.63h3.84l-.92.63-.93.63a.12.12,0,0,1-.16,0l-1.8-1.24S19.1,9.66,19.08,9.63Z" style="fill:#7abc5f"/></g></g></svg>