<svg xmlns="http://www.w3.org/2000/svg" viewBox="0 0 32 32"><g id="badbac33-d3df-4475-92a5-0f31a1cadb72" data-name="Capa 2"><g id="a973c138-7cb4-4627-a3bc-e862cfd02232" data-name="iconos"><circle cx="16" cy="16" r="16" style="fill:#1d1d1b"/><path d="M16,28c-.87,0-1.74,0-2.6,0a1.09,1.09,0,0,1-.87-.38A4.87,4.87,0,0,1,11,24.19a1.31,1.31,0,0,1,0-.28A4.52,4.52,0,0,0,9.73,20,12.51,12.51,0,0,1,7.35,16.3a9.2,9.2,0,1,1,17.68-5,8.83,8.83,0,0,1-1.76,7.4c-.65.86-1.29,1.73-2,2.57A1.6,1.6,0,0,0,21,22.39a12.08,12.08,0,0,1-.14,2.88,5.15,5.15,0,0,1-1.47,2.46.91.91,0,0,1-.69.23C17.76,28,16.87,28,16,28Zm0-7.11h3.59a.55.55,0,0,0,.51-.25c.78-1.05,1.63-2.06,2.35-3.15a7.24,7.24,0,0,0,.14-8.39A7.33,7.33,0,0,0,15,5.52a7.67,7.67,0,0,0-5.36,12c.74,1,1.55,2,2.31,3.07a.53.53,0,0,0,.52.22Zm0,1.4H13.55c-1.11,0-1.1,0-1.1,1.12,0,.32.09.39.39.39,1.86,0,3.71,0,5.57,0,1.18,0,1.17,0,1.14-1.17,0-.27-.08-.34-.34-.33C18.14,22.26,17.07,22.25,16,22.25Zm3.37,2.9H13.56c-.29,0-.76-.12-.84.06s.2.61.39.89.27.47.64.46c1.51,0,3,0,4.52,0a.42.42,0,0,0,.38-.13A3.64,3.64,0,0,0,19.37,25.15Z" style="fill:#f5f5f5"/><path d="M9.63,13.12A6.38,6.38,0,1,1,16,19.45,6.35,6.35,0,0,1,9.63,13.12Zm11.33,0A5,5,0,1,0,16,18,4.94,4.94,0,0,0,21,13.12Z" style="fill:#f5f5f5"/><path d="M16,16.65A3.56,3.56,0,0,1,13,15,.72.72,0,0,1,13.15,14c.36-.24.74-.13,1,.29a2.13,2.13,0,0,0,3.6,0c.31-.43.68-.54,1-.3s.42.66.11,1.1A3.56,3.56,0,0,1,16,16.65Z" style="fill:#f5f5f5"/><path d="M13.88,11a.7.7,0,1,1-.71.67A.71.71,0,0,1,13.88,11Z" style="fill:#f5f5f5"/><path d="M18.84,11.74a.71.71,0,0,1-1.42,0,.7.7,0,0,1,.73-.69A.71.71,0,0,1,18.84,11.74Z" style="fill:#f5f5f5"/></g></g></svg>