<svg xmlns="http://www.w3.org/2000/svg" viewBox="0 0 32 32"><g id="e9bfe78c-2702-45c5-ac2b-f0bc6464bcc8" data-name="Capa 2"><g id="a7b858d9-baec-42ac-ad57-b51e2fa166e7" data-name="iconos"><circle cx="16" cy="16" r="16" style="fill:#f6b181"/><path d="M2.4,16h0a.93.93,0,0,1,.51-.82L11.09,11v.84a.9.9,0,0,1-.5.81L4.1,16V16l6.49,3.29a.9.9,0,0,1,.5.81V21L2.91,16.82A.93.93,0,0,1,2.4,16Z" style="fill:#ec652a;stroke:#ec6529;stroke-miterlimit:10;stroke-width:0.9436340458879955px"/><path d="M18.47,8.89a.94.94,0,0,1,.84-.51h1.14L13.07,23.11a.94.94,0,0,1-.83.51H11.09Z" style="fill:#ec652a;stroke:#ec6529;stroke-miterlimit:10;stroke-width:0.9436340458879955px"/><path d="M20.91,20.13a.9.9,0,0,1,.5-.81L27.9,16V16l-6.49-3.29a.9.9,0,0,1-.5-.81V11l8.18,4.15a.93.93,0,0,1,.51.82h0a.93.93,0,0,1-.51.82L20.91,21Z" style="fill:#ec652a;stroke:#ec6529;stroke-miterlimit:10;stroke-width:0.9436340458879955px"/></g></g></svg>