<svg xmlns="http://www.w3.org/2000/svg" viewBox="0 0 17.6 11.67"><g id="e2d4ccdf-b11d-42ee-87eb-53c082e5eff6" data-name="Capa 2"><g id="b3c1e89f-4476-409f-af44-c12516e74846" data-name="Capa 2"><path d="M9.71,7.72a.45.45,0,0,1-.17.11,1.51,1.51,0,0,1-.48.07l-.49,0,.06.38a6.23,6.23,0,0,1,.1.72A14.2,14.2,0,0,0,9,10.8a.91.91,0,0,1,0,.28.24.24,0,0,1-.16.17.63.63,0,0,1-.31,0,.39.39,0,0,1-.27-.13.52.52,0,0,1-.13-.2A5.79,5.79,0,0,1,8,10.17c0-.29,0-.64-.07-1,0-.18,0-.4-.08-.67S7.79,8,7.77,7.93L4.51,8,3.58,8l-.45.57-.6.78C2,10.07,1.64,10.62,1.4,11a.45.45,0,0,1-.23.22.65.65,0,0,1-.37.07.77.77,0,0,1-.28-.08A.18.18,0,0,1,.44,11a1.66,1.66,0,0,1,.28-.45L1,10.16c.05-.07.17-.21.34-.45l.72-.91.58-.71-1.24.1a7.4,7.4,0,0,1-.76,0,.31.31,0,0,1-.24-.11.22.22,0,0,1,0-.19.21.21,0,0,1,.13-.16,1.08,1.08,0,0,1,.33-.06l1.3-.08.95,0a5.35,5.35,0,0,0,.33-.47l.23-.32c.1-.12.2-.28.33-.47l.34-.49c.57-.88.91-1.37,1-1.49a1.5,1.5,0,0,1,.2-.22.31.31,0,0,1,.21-.06,2.22,2.22,0,0,1,.56.11l.11-.08A.48.48,0,0,1,6.57,4H6.8c.19,0,.38.18.57.47a5.61,5.61,0,0,1,.53,1,9.88,9.88,0,0,1,.32,1l.24.91a2.37,2.37,0,0,0,.41,0l.22,0,.19-.06.19-.06a.27.27,0,0,1,.32.29A.29.29,0,0,1,9.71,7.72Zm-2.17-1a7.19,7.19,0,0,0-.29-1,4.41,4.41,0,0,0-.41-.81,1.55,1.55,0,0,0-.49-.54l-.22.25a5.6,5.6,0,0,0-.6.66c-.35.46-.9,1.23-1.67,2.3l1.88,0,1.54,0h.44Z" style="fill:#fff"/><path d="M8.58,11.67H8.49A.78.78,0,0,1,8,11.42a1.13,1.13,0,0,1-.21-.33,5.31,5.31,0,0,1-.13-.89c0-.29,0-.64-.08-1a6.33,6.33,0,0,0-.07-.63,1.12,1.12,0,0,0,0-.21l-2.93.06-.76,0L2.82,9.6c-.49.68-.86,1.22-1.1,1.6a.89.89,0,0,1-.38.36,1.12,1.12,0,0,1-.56.11,1,1,0,0,1-.46-.15A.55.55,0,0,1,.07,11a1.74,1.74,0,0,1,.35-.61A3.66,3.66,0,0,0,.71,10c.09-.1.2-.24.36-.46s.43-.56.73-.92l0,0-.36,0a5.11,5.11,0,0,1-.83,0,.68.68,0,0,1-.51-.25A.63.63,0,0,1,0,7.86a.58.58,0,0,1,.37-.44A1.3,1.3,0,0,1,.8,7.34l1.32-.08.77,0a2.85,2.85,0,0,0,.21-.31l.25-.34c.09-.12.2-.27.31-.45L4,5.61c.57-.87.91-1.37,1-1.49a2.63,2.63,0,0,1,.25-.28.63.63,0,0,1,.49-.15,2.31,2.31,0,0,1,.47.07.81.81,0,0,1,.28-.12,1.08,1.08,0,0,1,1.19.63,6.65,6.65,0,0,1,.56,1.1,10.63,10.63,0,0,1,.33,1.08c.07.25.13.46.17.62h.07L9,7a.51.51,0,0,0,.14,0,1.44,1.44,0,0,1,.25-.08.62.62,0,0,1,.4,0,.59.59,0,0,1,.37.69A.64.64,0,0,1,10,8h0a.72.72,0,0,1-.33.21,2.13,2.13,0,0,1-.57.09H9c0,.18.06.41.09.71a13.24,13.24,0,0,0,.23,1.74,1.52,1.52,0,0,1,0,.43.59.59,0,0,1-.38.43A1.06,1.06,0,0,1,8.58,11.67Zm-.1-.82,0,.06s.07,0,.07,0v-.06a15.78,15.78,0,0,1-.24-1.81,4,4,0,0,0-.09-.66h0A2.63,2.63,0,0,1,8.2,8l0-.14v0h0v0c0,.08,0,.26.09.53a5.89,5.89,0,0,1,.08.71c0,.4,0,.75.07,1a6.39,6.39,0,0,0,.1.71Zm-6.95-.72-.22.28L1,10.8l-.09.11.06,0a.14.14,0,0,0,.08-.07Zm-.89-2Zm8.79-.6.28.2-.27-.26h0S9.43,7.5,9.43,7.52ZM6.37,4.88a4.21,4.21,0,0,0-.53.6c-.28.37-.69.93-1.24,1.69l2.65-.06-.08-.34a7.93,7.93,0,0,0-.27-.93,4.41,4.41,0,0,0-.38-.75Zm-.68-.45s0,.05-.08.14a.25.25,0,0,0-.05.07l.19-.2Z" style="fill:#fff"/><path d="M9,.82a.53.53,0,0,1,.56.12,3,3,0,0,1,.53.68l.06.1.07.11a5.6,5.6,0,0,0,.42.61.27.27,0,0,0,.3.1.51.51,0,0,0,.35-.36,1.51,1.51,0,0,0,.09-.6,1.51,1.51,0,0,0-.05-.44.16.16,0,0,0-.06-.08A.16.16,0,0,1,11.22,1a.16.16,0,0,1,0-.18.28.28,0,0,1,.16-.11q.13,0,.21.18a2,2,0,0,1,0,.66,2.45,2.45,0,0,1-.19.85.79.79,0,0,1-.49.49.37.37,0,0,1-.35-.05,1.08,1.08,0,0,1-.32-.32c-.11-.14-.24-.35-.41-.61s-.26-.42-.33-.52a.82.82,0,0,0-.26-.23.39.39,0,0,0-.32,0,.48.48,0,0,0-.3.29A1.13,1.13,0,0,0,8.6,2a1.65,1.65,0,0,0,.08.59,1.72,1.72,0,0,0,.09.19s.07.07.09.06,0,0,0,0l0,0s.05,0,.06.07,0,.12-.08.25-.12.21-.16.22a.18.18,0,0,1-.18-.05.83.83,0,0,1-.18-.36A2.06,2.06,0,0,1,8.28,2a1.75,1.75,0,0,1,.24-.75A.88.88,0,0,1,9,.82Z" style="fill:#fff"/><path d="M8.7,3.38a.33.33,0,0,1-.22-.1,1.08,1.08,0,0,1-.21-.41A2.13,2.13,0,0,1,8.16,2a1.88,1.88,0,0,1,.25-.81A1,1,0,0,1,9,.7H9a.68.68,0,0,1,.68.14,3.68,3.68,0,0,1,.56.72.44.44,0,0,1,.06.1l.06.09a4.72,4.72,0,0,0,.42.61c.07.08.12.08.17.06a.41.41,0,0,0,.26-.28,1.71,1.71,0,0,0,.09-.55,1.53,1.53,0,0,0,0-.41l0,0A.33.33,0,0,1,11.1,1a.29.29,0,0,1,.08-.31.51.51,0,0,1,.21-.14c.08,0,.26,0,.37.26a2,2,0,0,1,.05.71,2.56,2.56,0,0,1-.19.88.94.94,0,0,1-.57.57.51.51,0,0,1-.45-.06,1.32,1.32,0,0,1-.36-.35c-.11-.15-.24-.35-.41-.63L9.5,1.44a.76.76,0,0,0-.21-.19.39.39,0,0,0-.24,0,.41.41,0,0,0-.22.23A1.41,1.41,0,0,0,8.72,2a1.63,1.63,0,0,0,.08.55,1,1,0,0,0,0,.1l.06,0H9l.06,0a.25.25,0,0,1,.1.14c0,.08,0,.17-.09.35s-.15.26-.23.28ZM9.05.93a.87.87,0,0,0-.43.36,1.56,1.56,0,0,0-.21.7,2,2,0,0,0,.09.8,1,1,0,0,0,.15.31s0,0,.06,0,0,0,.09-.15l0,0a.32.32,0,0,1-.15-.12.9.9,0,0,1-.11-.22A1.68,1.68,0,0,1,8.47,2a1.55,1.55,0,0,1,.13-.59A.65.65,0,0,1,9,1,.55.55,0,0,1,9.4,1a.77.77,0,0,1,.3.27l.34.52a5.91,5.91,0,0,0,.4.61,1,1,0,0,0,.29.29.26.26,0,0,0,.24,0,.65.65,0,0,0,.42-.42,2.38,2.38,0,0,0,.17-.8,1.81,1.81,0,0,0,0-.62c0-.09-.06-.11-.06-.11a.35.35,0,0,0-.1.08s0,.05,0,.06a.39.39,0,0,1,.12.16,2.18,2.18,0,0,1,.06.48,2,2,0,0,1-.1.64.63.63,0,0,1-.43.44.38.38,0,0,1-.43-.14,4.2,4.2,0,0,1-.43-.63,1,1,0,0,1-.08-.11A.41.41,0,0,0,10,1.69,3.08,3.08,0,0,0,9.48,1a.41.41,0,0,0-.43-.1Z" style="fill:#fff"/><path d="M7.93,3.25,11.65.17,12,.58,8.28,3.66Z" style="fill:#fff"/><path d="M8.27,3.83l-.52-.59L11.67,0l.51.59ZM8.1,3.27l.19.21L11.83.56,11.64.35Z" style="fill:#fff"/><path d="M12.42,11.29,9.15,4h1.41l2.72,5.63h0L16,4h1.39l-3.25,7.29Z" style="fill:#fff"/><path d="M14.24,11.42h-1.9l0-.07L9,3.87h1.68l0,.08L13.3,9.37l2.64-5.5H17.6Zm-1.74-.25h1.58l3.14-7H16.1L13.39,9.75h-.16l-.06-.07L10.48,4.12H9.34Z" style="fill:#fff"/></g></g></svg>