<svg xmlns="http://www.w3.org/2000/svg" viewBox="0 0 17.6 11.67"><g id="b9a2aa97-585d-4522-bf00-3fdf571f24b2" data-name="Capa 2"><g id="a850c45f-8784-4022-83c7-d4ba9589fb12" data-name="Capa 2"><path d="M9.71,7.72a.45.45,0,0,1-.17.11,1.51,1.51,0,0,1-.48.07l-.49,0,.06.38a6.23,6.23,0,0,1,.1.72A14.2,14.2,0,0,0,9,10.8a.91.91,0,0,1,0,.28.24.24,0,0,1-.16.17.63.63,0,0,1-.31,0,.39.39,0,0,1-.27-.13.52.52,0,0,1-.13-.2A5.79,5.79,0,0,1,8,10.17c0-.29,0-.64-.07-1,0-.18,0-.4-.08-.67S7.79,8,7.77,7.93L4.51,8,3.58,8l-.45.57-.6.78C2,10.07,1.64,10.62,1.4,11a.45.45,0,0,1-.23.22.65.65,0,0,1-.37.07.77.77,0,0,1-.28-.08A.18.18,0,0,1,.44,11a1.66,1.66,0,0,1,.28-.45L1,10.16c.05-.07.17-.21.34-.45l.72-.91.58-.71-1.24.1a7.4,7.4,0,0,1-.76,0,.34.34,0,0,1-.24-.11.22.22,0,0,1,0-.19.2.2,0,0,1,.13-.16,1.08,1.08,0,0,1,.33-.06l1.3-.08.95,0a5.35,5.35,0,0,0,.33-.47l.23-.32c.1-.12.2-.28.33-.47l.34-.49c.57-.88.91-1.37,1-1.49a1.11,1.11,0,0,1,.2-.22.26.26,0,0,1,.21-.06,2.22,2.22,0,0,1,.56.11l.11-.08A.48.48,0,0,1,6.57,4H6.8c.19,0,.38.18.57.47a5.61,5.61,0,0,1,.53,1,9.88,9.88,0,0,1,.32,1l.24.91a2.37,2.37,0,0,0,.41,0l.22,0,.19-.06.19-.06a.27.27,0,0,1,.32.29A.23.23,0,0,1,9.71,7.72Zm-2.17-1a7.19,7.19,0,0,0-.29-1,4.41,4.41,0,0,0-.41-.81,1.55,1.55,0,0,0-.49-.54l-.22.25a5.6,5.6,0,0,0-.6.66c-.35.46-.9,1.23-1.67,2.3l1.88,0,1.54,0h.44Z" style="fill:#1d1d1b;stroke:#1d1d1b;stroke-miterlimit:10;stroke-width:0.75px"/><path d="M9,.82a.53.53,0,0,1,.56.12,3,3,0,0,1,.53.68l.06.1.07.11a5.6,5.6,0,0,0,.42.61.27.27,0,0,0,.3.1.51.51,0,0,0,.35-.36,1.51,1.51,0,0,0,.09-.6,1.51,1.51,0,0,0-.05-.44.16.16,0,0,0-.06-.08.16.16,0,0,1,0-.26.28.28,0,0,1,.16-.11q.13,0,.21.18a2,2,0,0,1,0,.66,2.45,2.45,0,0,1-.19.85.79.79,0,0,1-.49.49.4.4,0,0,1-.35-.05,1.08,1.08,0,0,1-.32-.32c-.11-.14-.24-.35-.41-.61s-.26-.42-.33-.52a.82.82,0,0,0-.26-.23.39.39,0,0,0-.32,0,.48.48,0,0,0-.3.29A1.26,1.26,0,0,0,8.6,2a1.65,1.65,0,0,0,.08.59,1.72,1.72,0,0,0,.09.19s.07.07.09.06,0,0,0,0a.12.12,0,0,1,0,0s0,0,.05.07,0,.12-.08.25-.12.21-.16.22a.18.18,0,0,1-.18-.05.83.83,0,0,1-.18-.36A2.06,2.06,0,0,1,8.28,2a1.75,1.75,0,0,1,.24-.75A.88.88,0,0,1,9,.82Z" style="fill:#1d1d1b;stroke:#1d1d1b;stroke-miterlimit:10;stroke-width:0.25px"/><path d="M7.93,3.25,11.65.17,12,.58,8.28,3.66Z" style="fill:#1d1d1b;stroke:#1d1d1b;stroke-miterlimit:10;stroke-width:0.25px"/><path d="M12.42,11.29,9.15,4h1.41l2.72,5.63h0L16,4h1.39l-3.25,7.29Z" style="fill:#1d1d1b;stroke:#1d1d1b;stroke-miterlimit:10;stroke-width:0.25px"/></g></g></svg>